<svg width="404" height="404" viewBox="0 0 404 404" fill="none" xmlns="http://www.w3.org/2000/svg">
<path d="M258.012 241.112C256.836 240.892 255.726 241.625 255.489 242.781C253.103 254.544 243.848 262.448 232.463 262.448C221.714 262.448 212.268 255.393 209.057 245.345H219.103V241.069H202V258.172H206.276V249.946C210.913 259.953 221.06 266.724 232.463 266.724C245.941 266.724 256.879 257.443 259.681 243.632C259.917 242.474 259.168 241.347 258.012 241.112Z" fill="white"/>
<path d="M257.586 226.762C252.776 217.242 243.254 211.138 232.463 211.138C219.403 211.138 207.79 219.683 204.223 231.921C203.894 233.054 204.544 234.24 205.679 234.57C206.81 234.899 207.999 234.249 208.328 233.114C211.317 222.858 221.466 215.414 232.463 215.414C242.223 215.414 250.768 221.327 254.548 230.379H244.759V234.655H261.862V217.552H257.586V226.762Z" fill="white"/>
<path d="M261.862 151.276H142.138C140.958 151.276 140 152.232 140 153.414V247.483C140 248.665 140.958 249.621 142.138 249.621H199.458C198.346 246.253 197.724 242.666 197.724 238.931C197.724 228.639 202.314 219.416 209.532 213.139L191.255 194.864L156.379 225.571C155.972 225.928 155.468 226.103 154.966 226.103C154.373 226.103 153.783 225.86 153.36 225.379C152.58 224.491 152.665 223.14 153.552 222.36L189.934 190.329C190.78 189.585 192.059 189.626 192.858 190.424L202.998 200.564L223.937 177.63C224.32 177.211 224.854 176.961 225.421 176.935C225.985 176.923 226.541 177.113 226.96 177.495L252.616 201.013C253.486 201.81 253.546 203.163 252.748 204.034C251.951 204.902 250.597 204.964 249.727 204.166L225.652 182.092L206.024 203.587L212.938 210.501C218.377 206.858 224.908 204.724 231.931 204.724C242.157 204.724 251.324 208.273 257.586 215.414H264V153.414C264 152.232 263.042 151.276 261.862 151.276ZM174.207 187.916C167.641 187.916 162.301 182.575 162.301 176.012C162.301 169.444 167.641 164.103 174.207 164.103C180.772 164.103 186.113 169.444 186.113 176.01C186.113 182.575 180.772 187.916 174.207 187.916Z" fill="white"/>
</svg>
